<svg width="24" height="24" viewBox="0 0 24 24" fill="none" xmlns="http://www.w3.org/2000/svg">
<rect width="24" height="24" rx="8" fill="currentColor"/>
<path d="M12 10.5C12.3447 10.5 12.6861 10.4321 13.0045 10.3002C13.323 10.1683 13.6124 9.97491 13.8562 9.73116C14.0999 9.4874 14.2933 9.19802 14.4252 8.87954C14.5571 8.56106 14.625 8.21972 14.625 7.875C14.625 7.53028 14.5571 7.18894 14.4252 6.87046C14.2933 6.55198 14.0999 6.2626 13.8562 6.01884C13.6124 5.77509 13.323 5.58173 13.0045 5.44982C12.6861 5.3179 12.3447 5.25 12 5.25C11.3038 5.25 10.6361 5.52656 10.1438 6.01884C9.65156 6.51113 9.375 7.17881 9.375 7.875C9.375 8.57119 9.65156 9.23887 10.1438 9.73116C10.6361 10.2234 11.3038 10.5 12 10.5ZM5.25 18.3V18.75H18.75V18.3C18.75 16.62 18.75 15.78 18.423 15.138C18.1354 14.5735 17.6765 14.1146 17.112 13.827C16.47 13.5 15.63 13.5 13.95 13.5H10.05C8.37 13.5 7.53 13.5 6.888 13.827C6.32354 14.1146 5.86462 14.5735 5.577 15.138C5.25 15.78 5.25 16.62 5.25 18.3Z" fill="#333C56" stroke="#333C56" stroke-width="2" stroke-linecap="round" stroke-linejoin="round"/>
</svg>
