<svg width="31" height="31" viewBox="0 0 31 31" fill="none" xmlns="http://www.w3.org/2000/svg">
<path d="M30.0001 14.0881C30.0001 13.3728 29.9923 12.6575 29.9769 11.9422C29.8826 7.48361 29.8348 5.25505 28.1949 3.60356C26.555 1.95208 24.2728 1.89408 19.7069 1.77953C16.894 1.70703 14.1072 1.70703 11.2943 1.77953C6.72848 1.89408 4.44626 1.95208 2.80638 3.60356C1.16649 5.25505 1.11719 7.48216 1.02295 11.9407C0.992676 13.3717 0.992676 14.8031 1.02295 16.234C1.11864 20.6926 1.16649 22.9226 2.80638 24.5741C4.33897 26.1168 6.43124 26.2676 10.4258 26.3749" stroke="#FFFCF5" stroke-width="2" stroke-linecap="round" stroke-linejoin="round"/>
<path d="M8.25098 8.97559L12.5167 11.4985C15.0034 12.9687 15.9966 12.9687 18.4847 11.4985L22.7504 8.97559M17.6756 24.925C16.9419 24.213 14.0508 22.3151 14.0508 21.3001C14.0508 20.2851 16.9419 18.3886 17.6756 17.6752M30.0001 29.2748C29.8319 25.6151 29.9813 24.2826 27.599 22.5761C26.4275 21.7351 24.0713 21.1827 20.8916 21.4814M23.4058 17.8101L20.0753 20.9318C19.9392 21.0671 19.8624 21.2509 19.8616 21.4428C19.8607 21.6346 19.936 21.819 20.0709 21.9555L23.4058 25.128" stroke="#FFFCF5" stroke-width="2" stroke-linecap="round" stroke-linejoin="round"/>
</svg>
