<svg width="24" height="24" viewBox="0 0 24 24" fill="none" xmlns="http://www.w3.org/2000/svg">
<path d="M1.637 1.63702C0.732 1.63702 0 2.36902 0 3.27302V20.727C0 21.631 0.732 22.363 1.637 22.363H22.363C23.268 22.363 24 21.631 24 20.727V3.27302C24 2.36902 23.268 1.63702 22.363 1.63702H1.637ZM2.182 3.81802H21.818V20.182H19.092V19.092H14.182V20.182H2.182V3.81802ZM12 8.18202C11.566 8.18202 11.1497 8.35444 10.8428 8.66134C10.5359 8.96825 10.3635 9.3845 10.3635 9.81852C10.3635 10.2526 10.5359 10.6688 10.8428 10.9757C11.1497 11.2826 11.566 11.455 12 11.455C12.434 11.455 12.8503 11.2826 13.1572 10.9757C13.4641 10.6688 13.6365 10.2526 13.6365 9.81852C13.6365 9.3845 13.4641 8.96825 13.1572 8.66134C12.8503 8.35444 12.434 8.18202 12 8.18202ZM7.637 10.092C6.959 10.092 6.408 10.642 6.408 11.318C6.41712 11.6375 6.55044 11.9409 6.77965 12.1636C7.00886 12.3864 7.31588 12.511 7.6355 12.511C7.95512 12.511 8.26214 12.3864 8.49135 12.1636C8.72056 11.9409 8.85388 11.6375 8.863 11.318C8.863 10.641 8.314 10.092 7.637 10.092ZM16.363 10.092C16.199 10.0873 16.0357 10.1156 15.8828 10.1751C15.7299 10.2347 15.5905 10.3243 15.4728 10.4386C15.3552 10.553 15.2616 10.6898 15.1978 10.8409C15.1339 10.992 15.101 11.1544 15.101 11.3185C15.101 11.4826 15.1339 11.645 15.1978 11.7962C15.2616 11.9473 15.3552 12.0841 15.4728 12.1984C15.5905 12.3128 15.7299 12.4024 15.8828 12.4619C16.0357 12.5214 16.199 12.5497 16.363 12.545C16.6822 12.5359 16.9853 12.4027 17.2079 12.1737C17.4305 11.9447 17.555 11.6379 17.555 11.3185C17.555 10.9992 17.4305 10.6924 17.2079 10.4634C16.9853 10.2344 16.6822 10.1011 16.363 10.092ZM12 12.545C10.821 12.545 9.587 12.946 8.852 13.551C8.45875 13.4276 8.04915 13.3643 7.637 13.363C6.323 13.363 4.908 14.058 4.908 14.922V15.818H19.092V14.922C19.092 14.058 17.677 13.363 16.363 13.363C15.953 13.363 15.533 13.431 15.148 13.551C14.413 12.946 13.179 12.545 12 12.545Z" fill="currentColor"/>
</svg>


