<svg width="24" height="25" viewBox="0 0 24 25" fill="none" xmlns="http://www.w3.org/2000/svg">
<path fill-rule="evenodd" clip-rule="evenodd" d="M3.24909 11.82C1.55109 10.74 1.55109 8.26001 3.24909 7.18001L9.44909 3.23401C10.2113 2.74887 11.0961 2.49118 11.9996 2.49118C12.9031 2.49118 13.7879 2.74887 14.5501 3.23401L20.7511 7.18001C22.4491 8.26001 22.4491 10.74 20.7511 11.82L14.5511 15.766C13.7889 16.2511 12.9041 16.5088 12.0006 16.5088C11.0971 16.5088 10.2123 16.2511 9.45009 15.766L3.24909 11.82Z" fill="#8FABD0"/>
<path fill-rule="evenodd" clip-rule="evenodd" d="M19.6601 12.486L14.5501 9.23399C13.788 8.74906 12.9034 8.49149 12.0001 8.49149C11.0968 8.49149 10.2122 8.74906 9.45011 9.23399L4.34011 12.486L10.2551 16.251C10.7766 16.5829 11.3819 16.7592 12.0001 16.7592C12.6183 16.7592 13.2236 16.5829 13.7451 16.251L19.6601 12.486ZM21.0221 13.375C20.9374 13.4443 20.8474 13.5093 20.7521 13.57L14.5501 17.516C13.788 18.0009 12.9034 18.2585 12.0001 18.2585C11.0968 18.2585 10.2122 18.0009 9.45011 17.516L3.24911 13.57C3.15557 13.51 3.06543 13.4449 2.97911 13.375C1.55611 14.535 1.64611 16.8 3.24911 17.82L9.44911 21.766C10.2113 22.2511 11.0961 22.5088 11.9996 22.5088C12.9031 22.5088 13.7879 22.2511 14.5501 21.766L20.7511 17.82C22.3541 16.8 22.4451 14.535 21.0221 13.375Z" fill="#8FABD0"/>
</svg>
