<svg width="24" height="24" viewBox="0 0 24 24" fill="none" xmlns="http://www.w3.org/2000/svg">
<path d="M3.75 5.25C3.75 4.65326 3.98705 4.08097 4.40901 3.65901C4.83097 3.23705 5.40326 3 6 3H13.3185C13.915 3.00053 14.4869 3.23792 14.9085 3.66L19.5915 8.34C19.8004 8.54903 19.9661 8.79717 20.0791 9.07025C20.192 9.34332 20.2501 9.63598 20.25 9.9315V18.75C20.25 19.3467 20.0129 19.919 19.591 20.341C19.169 20.7629 18.5967 21 18 21H6C5.40326 21 4.83097 20.7629 4.40901 20.341C3.98705 19.919 3.75 19.3467 3.75 18.75V5.25Z" fill="currentColor"/>
</svg>
